<svg width="49" height="48" viewBox="0 0 49 48" fill="none" xmlns="http://www.w3.org/2000/svg">
<path d="M7.79153 33.2616C6.07985 26.512 5.22401 23.1392 7.02147 20.8696C8.81893 18.6001 12.348 18.6001 19.4042 18.6001H28.6409C35.699 18.6001 39.2261 18.6001 41.0236 20.8696C42.821 23.1392 41.9652 26.514 40.2535 33.2616C39.1643 37.5548 38.6216 39.7005 36.9977 40.9513C35.3738 42.2001 33.1295 42.2001 28.6409 42.2001H19.4042C14.9155 42.2001 12.6712 42.2001 11.0473 40.9513C9.42341 39.7005 8.87878 37.5548 7.79153 33.2616Z" stroke="#F4E0FD" stroke-width="4"/>
<path d="M39.0225 19L37.6025 14.2636C37.0545 12.4364 36.7805 11.5236 36.2185 10.8345C35.6582 10.1499 34.8971 9.62255 34.0225 9.31273C33.1425 9 32.1025 9 30.0225 9M9.02252 19L10.4425 14.2636C10.9905 12.4364 11.2645 11.5236 11.8265 10.8345C12.3869 10.1499 13.1479 9.62255 14.0225 9.31273C14.9025 9 15.9425 9 18.0225 9" stroke="#F4E0FD" stroke-width="4"/>
<path d="M18.0225 9C18.0225 8.20435 18.2332 7.44129 18.6082 6.87868C18.9833 6.31607 19.492 6 20.0225 6H28.0225C28.5529 6 29.0616 6.31607 29.4367 6.87868C29.8117 7.44129 30.0225 8.20435 30.0225 9C30.0225 9.79565 29.8117 10.5587 29.4367 11.1213C29.0616 11.6839 28.5529 12 28.0225 12H20.0225C19.492 12 18.9833 11.6839 18.6082 11.1213C18.2332 10.5587 18.0225 9.79565 18.0225 9Z" stroke="#F4E0FD" stroke-width="4"/>
</svg>
