<svg width="1143" height="1164" viewBox="0 0 1143 1164" fill="none" xmlns="http://www.w3.org/2000/svg">
<path d="M163.709 859.637C214.202 933.893 284.805 994.363 369.28 1032.26M101.003 730.316C78.2615 658.157 71.8448 579.665 85.3797 499.95C94.9105 443.817 113.58 391.522 139.603 344.331M244.401 213.528C314.786 151.218 402.502 109.302 497.495 94.9145M649.509 95.6976C650.988 95.9353 652.468 96.1798 653.949 96.4311C922.383 142.008 1103.04 396.565 1057.47 665C1011.89 933.435 757.333 1114.1 488.898 1068.52C484.778 1067.82 480.679 1067.07 476.601 1066.27" stroke="#F4E0FD" stroke-width="1.8" stroke-linecap="round"/>
<path d="M149.752 843.549L151.32 845.868C151.048 846.113 150.84 846.38 150.696 846.668C150.547 846.959 150.46 847.262 150.432 847.579C150.405 847.896 150.437 848.219 150.53 848.547C150.621 848.871 150.772 849.189 150.982 849.499C151.361 850.061 151.831 850.455 152.392 850.683C152.949 850.914 153.569 850.965 154.254 850.836C154.935 850.71 155.652 850.393 156.404 849.884C157.177 849.362 157.749 848.808 158.12 848.223C158.488 847.634 158.666 847.041 158.653 846.443C158.639 845.845 158.448 845.272 158.078 844.725C157.87 844.418 157.637 844.161 157.38 843.955C157.119 843.745 156.842 843.59 156.549 843.491C156.251 843.393 155.944 843.354 155.628 843.372C155.309 843.387 154.987 843.466 154.661 843.609L153.104 841.282C153.642 841.006 154.224 840.831 154.849 840.759C155.467 840.685 156.095 840.727 156.73 840.883C157.36 841.039 157.968 841.322 158.555 841.733C159.135 842.143 159.661 842.696 160.131 843.391C160.785 844.359 161.151 845.371 161.229 846.43C161.304 847.485 161.076 848.513 160.545 849.516C160.011 850.514 159.154 851.412 157.975 852.209C156.793 853.009 155.636 853.466 154.506 853.582C153.375 853.699 152.335 853.522 151.386 853.053C150.432 852.586 149.634 851.876 148.989 850.923C148.564 850.295 148.259 849.653 148.073 848.997C147.884 848.337 147.818 847.685 147.876 847.039C147.929 846.396 148.112 845.779 148.422 845.188C148.73 844.594 149.174 844.047 149.752 843.549Z" fill="#F4E0FD"/>
<path d="M148.541 836.391L153.352 833.379L154.797 835.686L143.703 842.635L142.298 840.392L146.54 837.736L146.479 837.638C145.87 837.758 145.295 837.695 144.755 837.451C144.211 837.208 143.741 836.771 143.345 836.139C142.983 835.561 142.794 834.978 142.778 834.39C142.755 833.8 142.904 833.24 143.224 832.707C143.539 832.173 144.022 831.705 144.674 831.301L149.973 827.983L151.418 830.291L146.532 833.351C146.016 833.669 145.699 834.049 145.579 834.491C145.456 834.93 145.542 835.384 145.836 835.853C146.033 836.167 146.274 836.404 146.559 836.562C146.842 836.717 147.155 836.782 147.497 836.759C147.833 836.734 148.182 836.612 148.541 836.391Z" fill="#F4E0FD"/>
<path d="M145.252 819.645C145.749 820.504 145.997 821.353 145.995 822.192C145.987 823.028 145.752 823.806 145.292 824.526C144.828 825.247 144.161 825.86 143.291 826.363C142.413 826.871 141.548 827.146 140.695 827.186C139.838 827.229 139.047 827.044 138.321 826.632C137.59 826.219 136.975 825.582 136.478 824.723C135.98 823.864 135.736 823.016 135.744 822.179C135.746 821.341 135.979 820.561 136.443 819.839C136.903 819.12 137.572 818.506 138.45 817.998C139.32 817.495 140.184 817.221 141.04 817.179C141.893 817.138 142.686 817.325 143.417 817.738C144.143 818.15 144.755 818.786 145.252 819.645ZM143.42 820.691C143.194 820.3 142.894 820.037 142.521 819.904C142.145 819.772 141.724 819.752 141.26 819.843C140.794 819.931 140.314 820.118 139.82 820.404C139.325 820.69 138.924 821.013 138.616 821.373C138.305 821.73 138.114 822.105 138.04 822.497C137.967 822.889 138.043 823.281 138.269 823.671C138.498 824.066 138.802 824.333 139.183 824.472C139.562 824.607 139.984 824.631 140.45 824.544C140.915 824.452 141.394 824.263 141.888 823.977C142.382 823.691 142.785 823.37 143.095 823.013C143.403 822.652 143.593 822.274 143.664 821.879C143.73 821.481 143.648 821.085 143.42 820.691Z" fill="#F4E0FD"/>
<path d="M138.03 806.649C138.503 807.537 138.722 808.4 138.687 809.24C138.646 810.078 138.38 810.847 137.889 811.548C137.396 812.246 136.712 812.828 135.836 813.295C134.948 813.768 134.079 814.012 133.227 814.026C132.369 814.039 131.583 813.828 130.868 813.393C130.15 812.96 129.557 812.305 129.09 811.429C128.687 810.673 128.472 809.938 128.443 809.224C128.415 808.51 128.561 807.855 128.881 807.259C129.201 806.664 129.687 806.171 130.338 805.78L131.547 808.048C131.148 808.342 130.891 808.697 130.774 809.112C130.651 809.525 130.707 809.951 130.942 810.391C131.14 810.764 131.415 811.035 131.766 811.205C132.112 811.373 132.518 811.432 132.984 811.382C133.449 811.331 133.955 811.161 134.5 810.87C135.053 810.576 135.483 810.25 135.79 809.893C136.095 809.532 136.275 809.159 136.33 808.772C136.385 808.386 136.313 808.006 136.114 807.634C135.968 807.36 135.78 807.143 135.551 806.985C135.32 806.824 135.059 806.728 134.769 806.7C134.472 806.669 134.16 806.713 133.831 806.83L132.623 804.563C133.304 804.247 133.984 804.117 134.66 804.172C135.33 804.225 135.957 804.458 136.54 804.872C137.122 805.286 137.619 805.878 138.03 806.649Z" fill="#F4E0FD"/>
<path d="M131.937 794.722C132.373 795.614 132.561 796.478 132.5 797.314C132.434 798.149 132.146 798.908 131.637 799.594C131.124 800.281 130.415 800.846 129.512 801.287C128.601 801.733 127.718 801.946 126.865 801.927C126.007 801.91 125.231 801.671 124.536 801.209C123.835 800.746 123.266 800.068 122.83 799.176C122.394 798.284 122.209 797.421 122.275 796.587C122.336 795.751 122.623 794.989 123.136 794.302C123.645 793.616 124.355 793.051 125.266 792.605C126.17 792.163 127.05 791.951 127.908 791.968C128.761 791.987 129.539 792.228 130.24 792.692C130.935 793.154 131.501 793.83 131.937 794.722ZM130.036 795.638C129.838 795.232 129.557 794.949 129.195 794.79C128.828 794.632 128.41 794.583 127.941 794.641C127.47 794.696 126.978 794.849 126.465 795.1C125.952 795.351 125.529 795.645 125.196 795.984C124.862 796.318 124.644 796.678 124.544 797.064C124.443 797.45 124.492 797.846 124.69 798.252C124.891 798.661 125.176 798.949 125.546 799.114C125.914 799.276 126.334 799.329 126.805 799.274C127.275 799.215 127.766 799.06 128.279 798.809C128.792 798.559 129.216 798.266 129.55 797.932C129.883 797.593 130.099 797.229 130.197 796.84C130.29 796.448 130.237 796.047 130.036 795.638Z" fill="#F4E0FD"/>
<path d="M113.055 785.649L125.009 780.312L126.119 782.799L114.165 788.136L113.055 785.649Z" fill="#F4E0FD"/>
<path d="M120.702 769.71C120.937 770.29 121.046 770.849 121.028 771.384C121.007 771.922 120.851 772.404 120.559 772.83C120.262 773.254 119.813 773.587 119.213 773.831C118.707 774.035 118.245 774.115 117.826 774.068C117.407 774.022 117.028 773.881 116.689 773.646C116.35 773.411 116.045 773.112 115.774 772.748C115.501 772.381 115.251 771.981 115.025 771.548C114.756 771.041 114.531 770.635 114.353 770.331C114.17 770.028 114 769.823 113.842 769.717C113.684 769.611 113.508 769.597 113.315 769.675L113.279 769.69C112.904 769.842 112.662 770.078 112.552 770.398C112.441 770.714 112.473 771.088 112.648 771.518C112.832 771.972 113.079 772.293 113.389 772.48C113.695 772.668 114.016 772.745 114.352 772.711L115.108 775.122C114.507 775.227 113.935 775.188 113.391 775.003C112.843 774.821 112.35 774.499 111.91 774.038C111.465 773.575 111.095 772.98 110.8 772.253C110.596 771.748 110.459 771.24 110.39 770.73C110.32 770.216 110.336 769.728 110.439 769.268C110.541 768.804 110.745 768.388 111.051 768.02C111.353 767.654 111.775 767.361 112.316 767.142L118.453 764.655L119.423 767.048L118.161 767.56L118.19 767.631C118.534 767.662 118.864 767.756 119.18 767.912C119.493 768.071 119.78 768.297 120.041 768.591C120.299 768.887 120.519 769.26 120.702 769.71ZM118.667 769.693C118.517 769.322 118.311 769.023 118.049 768.798C117.784 768.575 117.492 768.433 117.174 768.374C116.855 768.314 116.536 768.349 116.216 768.479L115.251 768.87C115.334 768.928 115.425 769.018 115.525 769.138C115.619 769.257 115.718 769.394 115.822 769.549C115.923 769.706 116.021 769.864 116.118 770.022C116.21 770.183 116.294 770.328 116.37 770.458C116.533 770.737 116.707 770.967 116.892 771.15C117.076 771.333 117.274 771.453 117.486 771.51C117.693 771.568 117.916 771.549 118.153 771.453C118.496 771.314 118.708 771.083 118.789 770.761C118.865 770.436 118.824 770.08 118.667 769.693Z" fill="#F4E0FD"/>
<path d="M104.766 756.076L106.687 755.374L108.715 760.928L106.794 761.63L104.766 756.076ZM104.124 761.176L103.19 758.618L111.788 755.478C112.024 755.392 112.195 755.289 112.301 755.168C112.403 755.05 112.456 754.917 112.461 754.77C112.465 754.618 112.436 754.457 112.373 754.285C112.329 754.165 112.275 754.048 112.211 753.935C112.143 753.824 112.092 753.739 112.056 753.679L113.813 752.582C113.9 752.695 114.011 752.858 114.148 753.072C114.289 753.283 114.426 753.553 114.559 753.881C114.808 754.489 114.924 755.059 114.905 755.592C114.885 756.121 114.724 756.586 114.421 756.987C114.118 757.388 113.664 757.697 113.058 757.913L104.124 761.176Z" fill="#F4E0FD"/>
<path d="M110.466 741.752C110.779 742.712 110.854 743.602 110.691 744.422C110.522 745.239 110.14 745.951 109.545 746.557C108.945 747.165 108.153 747.629 107.168 747.95C106.208 748.263 105.305 748.352 104.458 748.216C103.611 748.079 102.875 747.739 102.249 747.194C101.622 746.646 101.159 745.914 100.861 744.998C100.66 744.382 100.572 743.777 100.598 743.181C100.618 742.583 100.76 742.021 101.023 741.496C101.285 740.967 101.678 740.494 102.201 740.077C102.72 739.661 103.376 739.324 104.17 739.065L104.881 738.833L107.451 746.715L105.847 747.238L104.072 741.793C103.699 741.915 103.395 742.103 103.16 742.359C102.925 742.615 102.774 742.913 102.706 743.254C102.632 743.592 102.657 743.949 102.78 744.326C102.908 744.719 103.112 745.037 103.394 745.282C103.67 745.523 103.988 745.68 104.347 745.751C104.702 745.823 105.065 745.801 105.435 745.685L106.96 745.188C107.422 745.037 107.793 744.822 108.074 744.542C108.354 744.258 108.533 743.929 108.612 743.553C108.692 743.178 108.66 742.773 108.519 742.34C108.425 742.052 108.299 741.802 108.14 741.589C107.981 741.377 107.793 741.212 107.575 741.095C107.358 740.977 107.117 740.912 106.853 740.9L106.23 738.454C106.845 738.388 107.429 738.473 107.981 738.71C108.528 738.944 109.017 739.318 109.449 739.831C109.876 740.342 110.215 740.982 110.466 741.752Z" fill="#F4E0FD"/>
<path d="M467.896 1057.33L466.001 1070.28L460.815 1069.52C459.862 1069.38 459.087 1069.13 458.492 1068.75C457.897 1068.38 457.476 1067.91 457.228 1067.36C456.981 1066.82 456.904 1066.22 456.999 1065.57C457.073 1065.07 457.24 1064.64 457.498 1064.28C457.756 1063.93 458.08 1063.66 458.47 1063.47C458.855 1063.28 459.281 1063.17 459.747 1063.13L459.765 1063.01C459.275 1062.91 458.834 1062.71 458.441 1062.39C458.044 1062.07 457.745 1061.65 457.543 1061.15C457.34 1060.65 457.286 1060.08 457.379 1059.45C457.479 1058.76 457.74 1058.17 458.16 1057.68C458.576 1057.2 459.138 1056.84 459.845 1056.63C460.553 1056.41 461.392 1056.38 462.361 1056.52L467.896 1057.33ZM464.829 1059.17L462.597 1058.84C461.834 1058.73 461.256 1058.79 460.863 1059.03C460.47 1059.28 460.238 1059.64 460.166 1060.13C460.114 1060.49 460.154 1060.82 460.287 1061.12C460.419 1061.42 460.635 1061.67 460.932 1061.87C461.226 1062.08 461.592 1062.21 462.03 1062.27L464.326 1062.61L464.829 1059.17ZM464.055 1064.46L462.025 1064.16C461.65 1064.11 461.307 1064.13 460.997 1064.21C460.682 1064.31 460.422 1064.46 460.218 1064.68C460.009 1064.9 459.88 1065.18 459.83 1065.52C459.761 1065.99 459.873 1066.39 460.164 1066.73C460.451 1067.06 460.898 1067.27 461.505 1067.36L463.586 1067.67L464.055 1064.46Z" fill="#F4E0FD"/>
<path d="M446.981 1067.23L449.327 1054.35L452.006 1054.84L449.66 1067.71L446.981 1067.23Z" fill="#F4E0FD"/>
<path d="M436.615 1056.01L435.412 1061.52L432.752 1060.94L434.847 1051.35L437.401 1051.91L437.021 1053.65L437.12 1053.67C437.46 1053.16 437.918 1052.78 438.497 1052.55C439.071 1052.32 439.718 1052.28 440.438 1052.44C441.08 1052.58 441.612 1052.85 442.035 1053.25C442.459 1053.64 442.749 1054.14 442.907 1054.74C443.06 1055.33 443.057 1056.01 442.897 1056.76L441.563 1062.86L438.903 1062.28L440.133 1056.65C440.253 1056.08 440.199 1055.6 439.971 1055.21C439.743 1054.81 439.377 1054.56 438.873 1054.45C438.553 1054.38 438.237 1054.39 437.926 1054.47C437.615 1054.56 437.342 1054.73 437.107 1054.99C436.869 1055.24 436.705 1055.58 436.615 1056.01Z" fill="#F4E0FD"/>
<path d="M426.823 1049.17C427.801 1049.42 428.593 1049.84 429.198 1050.41C429.798 1050.99 430.194 1051.7 430.387 1052.52C430.58 1053.36 430.548 1054.27 430.291 1055.28C430.042 1056.25 429.632 1057.06 429.064 1057.71C428.495 1058.35 427.814 1058.79 427.019 1059.03C426.22 1059.26 425.354 1059.26 424.42 1059.02C423.793 1058.86 423.234 1058.61 422.745 1058.27C422.251 1057.93 421.852 1057.51 421.55 1057.01C421.243 1056.5 421.054 1055.92 420.982 1055.25C420.909 1054.59 420.975 1053.86 421.182 1053.05L421.367 1052.32L429.4 1054.38L428.982 1056.01L423.433 1054.59C423.336 1054.97 423.333 1055.33 423.423 1055.67C423.514 1056 423.684 1056.29 423.935 1056.53C424.181 1056.77 424.496 1056.94 424.88 1057.04C425.28 1057.14 425.659 1057.14 426.016 1057.03C426.368 1056.93 426.67 1056.75 426.923 1056.48C427.174 1056.22 427.35 1055.9 427.45 1055.53L427.847 1053.97C427.967 1053.5 427.984 1053.07 427.898 1052.69C427.808 1052.3 427.626 1051.97 427.351 1051.7C427.077 1051.43 426.718 1051.24 426.277 1051.13C425.984 1051.06 425.705 1051.03 425.44 1051.05C425.175 1051.07 424.935 1051.14 424.72 1051.26C424.504 1051.38 424.32 1051.55 424.168 1051.77L421.769 1050.98C422.043 1050.43 422.427 1049.98 422.923 1049.64C423.414 1049.3 423.991 1049.09 424.656 1049C425.316 1048.92 426.038 1048.97 426.823 1049.17Z" fill="#F4E0FD"/>
<path d="M398.981 1050.85C398.867 1051.35 398.95 1051.8 399.228 1052.2C399.506 1052.59 399.961 1052.89 400.592 1053.1C401.021 1053.24 401.403 1053.3 401.739 1053.28C402.073 1053.26 402.354 1053.17 402.581 1053.01C402.804 1052.85 402.96 1052.64 403.049 1052.37C403.131 1052.15 403.148 1051.94 403.102 1051.74C403.052 1051.54 402.956 1051.35 402.814 1051.17C402.671 1050.99 402.495 1050.82 402.285 1050.65C402.075 1050.49 401.844 1050.33 401.593 1050.18L400.565 1049.54C400.063 1049.24 399.619 1048.91 399.233 1048.56C398.847 1048.21 398.537 1047.83 398.303 1047.43C398.069 1047.02 397.927 1046.59 397.878 1046.13C397.825 1045.66 397.881 1045.17 398.049 1044.65C398.305 1043.9 398.717 1043.3 399.286 1042.87C399.85 1042.44 400.543 1042.19 401.365 1042.12C402.181 1042.06 403.095 1042.19 404.107 1042.53C405.11 1042.86 405.933 1043.3 406.575 1043.86C407.214 1044.41 407.642 1045.05 407.859 1045.8C408.07 1046.54 408.038 1047.36 407.763 1048.26L405.22 1047.42C405.33 1046.99 405.326 1046.61 405.208 1046.26C405.084 1045.91 404.868 1045.61 404.559 1045.35C404.245 1045.09 403.861 1044.89 403.408 1044.74C402.963 1044.59 402.555 1044.53 402.184 1044.55C401.81 1044.57 401.493 1044.66 401.235 1044.83C400.977 1045 400.798 1045.24 400.699 1045.54C400.606 1045.82 400.611 1046.08 400.714 1046.32C400.813 1046.57 400.998 1046.81 401.27 1047.05C401.537 1047.28 401.879 1047.53 402.296 1047.79L403.537 1048.58C404.5 1049.18 405.195 1049.85 405.622 1050.6C406.05 1051.34 406.109 1052.17 405.801 1053.09C405.556 1053.84 405.138 1054.43 404.547 1054.86C403.953 1055.29 403.247 1055.54 402.431 1055.62C401.614 1055.7 400.753 1055.59 399.847 1055.29C398.924 1054.98 398.172 1054.56 397.588 1054.02C397.001 1053.47 396.608 1052.85 396.41 1052.16C396.212 1051.48 396.23 1050.76 396.463 1050.01L398.981 1050.85Z" fill="#F4E0FD"/>
<path d="M392.807 1041.79L391.666 1044.85L391.295 1044.71L387.051 1047.11L384.12 1046.03L389.796 1042.87L390.402 1043.09L392.807 1041.79ZM396.102 1040L391.555 1052.27L389.002 1051.33L393.548 1039.05L396.102 1040ZM390.347 1037.86L391.572 1042.88L389.201 1044.05L387.356 1036.76L390.347 1037.86Z" fill="#F4E0FD"/>
<path d="M384.62 1031.68C384.939 1031.81 385.228 1031.96 385.487 1032.13C385.743 1032.29 385.947 1032.44 386.097 1032.59L384.758 1034.24C384.499 1034.03 384.253 1033.87 384.02 1033.77C383.783 1033.66 383.553 1033.63 383.331 1033.68C383.105 1033.72 382.879 1033.86 382.652 1034.1L382.346 1034.43L381.769 1045.11L379.12 1044.02L379.978 1036.58L379.883 1036.54L375.247 1042.43L372.58 1041.33L380.242 1032.72C380.612 1032.3 381.017 1031.97 381.458 1031.73C381.896 1031.48 382.377 1031.34 382.899 1031.33C383.423 1031.31 383.997 1031.43 384.62 1031.68Z" fill="#F4E0FD"/>
<path d="M507.693 99.0187L506.241 86.0085L511.45 85.4272C512.408 85.3204 513.222 85.3732 513.893 85.5856C514.564 85.798 515.089 86.1382 515.467 86.6063C515.844 87.0701 516.07 87.6281 516.142 88.2803C516.199 88.7885 516.147 89.2467 515.987 89.6548C515.826 90.0586 515.582 90.4032 515.253 90.6885C514.929 90.9691 514.546 91.1856 514.104 91.3378L514.118 91.4648C514.616 91.4307 515.095 91.5187 515.556 91.7288C516.021 91.9385 516.415 92.2612 516.738 92.6968C517.061 93.1281 517.258 93.6636 517.329 94.3031C517.406 94.9934 517.303 95.6287 517.021 96.2091C516.742 96.7848 516.288 97.2664 515.658 97.654C515.028 98.0416 514.226 98.2897 513.252 98.3984L507.693 99.0187ZM510.193 96.4629L512.435 96.2127C513.202 96.1271 513.745 95.9186 514.063 95.5872C514.382 95.2515 514.514 94.838 514.459 94.3468C514.419 93.9868 514.296 93.6789 514.092 93.4229C513.888 93.167 513.616 92.9787 513.277 92.8579C512.941 92.7367 512.554 92.7006 512.113 92.7498L509.807 93.0071L510.193 96.4629ZM509.599 91.1458L511.639 90.9182C512.016 90.8762 512.343 90.7732 512.62 90.6093C512.902 90.4407 513.113 90.2241 513.255 89.9596C513.402 89.6946 513.456 89.3905 513.417 89.0475C513.365 88.5774 513.155 88.217 512.789 87.9664C512.426 87.7152 511.94 87.6237 511.33 87.6918L509.24 87.925L509.599 91.1458Z" fill="#F4E0FD"/>
<path d="M526.054 83.989L527.203 97.0294L524.49 97.2684L523.342 84.2279L526.054 83.989Z" fill="#F4E0FD"/>
<path d="M540.408 91.8603L540.045 86.2343L542.762 86.0585L543.395 95.8563L540.787 96.025L540.671 94.2453L540.569 94.2519C540.385 94.8403 540.047 95.3255 539.555 95.7074C539.068 96.0891 538.456 96.3038 537.72 96.3514C537.065 96.3937 536.48 96.2821 535.963 96.0166C535.446 95.7511 535.029 95.3532 534.713 94.8227C534.401 94.292 534.219 93.6441 534.165 92.8789L533.761 86.6405L536.479 86.4648L536.851 92.2184C536.893 92.7965 537.077 93.2436 537.405 93.5598C537.733 93.8759 538.154 94.0173 538.669 93.9841C538.996 93.9629 539.298 93.8687 539.573 93.7014C539.848 93.5299 540.063 93.2897 540.218 92.9807C540.378 92.6715 540.441 92.298 540.408 91.8603Z" fill="#F4E0FD"/>
<path d="M555.771 95.4839C554.762 95.5204 553.885 95.3474 553.142 94.9649C552.404 94.578 551.825 94.0147 551.406 93.2751C550.986 92.5312 550.758 91.6419 550.721 90.607C550.684 89.5977 550.848 88.7049 551.212 87.9284C551.577 87.152 552.107 86.538 552.802 86.0864C553.502 85.6347 554.334 85.3915 555.296 85.3567C555.943 85.3333 556.55 85.4158 557.115 85.6043C557.685 85.7884 558.186 86.0795 558.618 86.4775C559.054 86.8753 559.401 87.383 559.658 88.0006C559.915 88.6139 560.058 89.3379 560.088 90.1725L560.115 90.9199L551.83 91.2193L551.769 89.5329L557.493 89.3261C557.479 88.9343 557.381 88.5903 557.2 88.2941C557.018 87.9979 556.773 87.7701 556.465 87.6107C556.16 87.4468 555.81 87.3721 555.414 87.3864C555.001 87.4013 554.638 87.5104 554.326 87.7136C554.018 87.9123 553.78 88.1746 553.612 88.5005C553.445 88.8221 553.366 89.1767 553.376 89.5644L553.434 91.1678C553.451 91.6533 553.556 92.0695 553.747 92.4165C553.943 92.7633 554.211 93.0266 554.55 93.2062C554.889 93.3858 555.286 93.4674 555.742 93.451C556.044 93.44 556.32 93.3874 556.568 93.2932C556.816 93.1989 557.027 93.0634 557.199 92.8866C557.372 92.7098 557.501 92.4962 557.585 92.2458L560.108 92.3209C560.002 92.9303 559.76 93.4678 559.38 93.9335C559.004 94.3948 558.51 94.7624 557.897 95.0361C557.289 95.3054 556.58 95.4547 555.771 95.4839Z" fill="#F4E0FD"/>
<path d="M567.262 94.9722L567.162 81.8817L569.885 81.8608L569.923 86.7825L570.006 86.7818C570.123 86.5167 570.293 86.2469 570.517 85.9725C570.745 85.6937 571.042 85.4614 571.407 85.2753C571.776 85.085 572.235 84.9877 572.785 84.9835C573.501 84.978 574.163 85.1604 574.771 85.5307C575.379 85.8968 575.867 86.4535 576.235 87.2007C576.603 87.9436 576.791 88.8775 576.8 90.0025C576.808 91.0976 576.638 92.0237 576.29 92.7806C575.947 93.5333 575.474 94.1058 574.872 94.4983C574.274 94.8864 573.602 95.0833 572.856 95.089C572.328 95.0931 571.878 95.0092 571.506 94.8373C571.138 94.6654 570.836 94.4483 570.599 94.1859C570.363 93.9192 570.182 93.65 570.056 93.3782L569.935 93.3792L569.947 94.9516L567.262 94.9722ZM569.89 90.0428C569.894 90.6266 569.979 91.1352 570.145 91.5686C570.31 92.002 570.547 92.3389 570.856 92.5795C571.164 92.8157 571.538 92.9322 571.977 92.9288C572.42 92.9254 572.794 92.8011 573.099 92.5559C573.404 92.3063 573.634 91.9637 573.788 91.5278C573.946 91.0877 574.024 90.5821 574.019 90.0111C574.015 89.4443 573.932 88.9464 573.771 88.5172C573.61 88.088 573.375 87.7532 573.067 87.5126C572.758 87.2721 572.38 87.1535 571.933 87.157C571.489 87.1604 571.115 87.2804 570.81 87.5172C570.51 87.7539 570.28 88.088 570.121 88.5196C569.963 88.9513 569.886 89.459 569.89 90.0428Z" fill="#F4E0FD"/>
<path d="M588.607 95.2355C587.597 95.2145 586.732 94.9919 586.012 94.5678C585.296 94.1395 584.75 93.5442 584.374 92.782C583.998 92.0155 583.82 91.1146 583.842 90.0793C583.863 89.0696 584.077 88.1875 584.485 87.433C584.893 86.6785 585.457 86.0956 586.177 85.6844C586.902 85.2732 587.746 85.0776 588.709 85.0976C589.356 85.1111 589.957 85.228 590.511 85.4483C591.069 85.6645 591.552 85.9836 591.961 86.4055C592.374 86.8275 592.692 87.3541 592.913 87.9853C593.134 88.6122 593.236 89.3431 593.219 90.1782L593.203 90.9259L584.915 90.7537L584.95 89.0666L590.676 89.1855C590.684 88.7936 590.606 88.4446 590.442 88.1385C590.278 87.8325 590.046 87.5911 589.747 87.4144C589.453 87.2336 589.107 87.139 588.711 87.1308C588.298 87.1222 587.929 87.2104 587.606 87.3955C587.287 87.5764 587.034 87.8248 586.849 88.1406C586.663 88.4522 586.564 88.8017 586.552 89.1894L586.519 90.7934C586.509 91.2791 586.589 91.7006 586.761 92.058C586.937 92.4154 587.189 92.6934 587.517 92.892C587.846 93.0906 588.238 93.1947 588.694 93.2042C588.996 93.2104 589.274 93.1736 589.527 93.0936C589.78 93.0136 589.998 92.8903 590.18 92.7236C590.363 92.5569 590.504 92.3509 590.602 92.1058L593.117 92.3243C592.977 92.9266 592.704 93.4494 592.298 93.8928C591.897 94.332 591.382 94.6708 590.755 94.9093C590.132 95.1436 589.416 95.2523 588.607 95.2355Z" fill="#F4E0FD"/>
<path d="M600.066 95.3893L600.515 85.5814L603.152 85.7022L603.074 87.4134L603.176 87.4181C603.383 86.8176 603.704 86.3716 604.14 86.0801C604.575 85.7844 605.068 85.6491 605.617 85.6743C605.753 85.6805 605.9 85.6958 606.056 85.72C606.213 85.7442 606.35 85.774 606.468 85.8093L606.358 88.2229C606.232 88.1788 606.057 88.1366 605.832 88.0965C605.608 88.0563 605.402 88.032 605.215 88.0234C604.815 88.0051 604.453 88.076 604.13 88.2361C603.812 88.3921 603.554 88.6192 603.357 88.9173C603.164 89.2156 603.058 89.5648 603.04 89.965L602.786 95.5139L600.066 95.3893Z" fill="#F4E0FD"/>
<path d="M612.99 96.061L613.659 86.2657L616.293 86.4455L616.176 88.1546L616.278 88.1616C616.498 87.5658 616.829 87.1271 617.271 86.8455C617.714 86.5596 618.209 86.4354 618.757 86.4729C618.894 86.4822 619.04 86.5007 619.196 86.5284C619.352 86.5562 619.488 86.589 619.605 86.6269L619.441 89.0375C619.316 88.9905 619.142 88.9444 618.919 88.8993C618.695 88.8541 618.49 88.8252 618.303 88.8124C617.903 88.7851 617.54 88.8479 617.214 89.0007C616.892 89.1496 616.629 89.3708 616.425 89.6644C616.226 89.9584 616.112 90.3051 616.085 90.7048L615.707 96.2465L612.99 96.061Z" fill="#F4E0FD"/>
<path d="M627.221 100.835C626.878 100.802 626.558 100.745 626.262 100.661C625.969 100.583 625.729 100.494 625.542 100.395L626.342 98.4284C626.651 98.5557 626.932 98.6355 627.186 98.6678C627.444 98.7004 627.673 98.6619 627.871 98.552C628.074 98.4426 628.249 98.2407 628.396 97.9463L628.594 97.5475L626.027 87.1641L628.878 87.4306L630.231 94.7987L630.333 94.8082L633.047 87.8202L635.917 88.0884L631.106 98.5654C630.874 99.0745 630.583 99.5095 630.232 99.8705C629.886 100.236 629.465 100.503 628.97 100.671C628.475 100.843 627.892 100.897 627.221 100.835Z" fill="#F4E0FD"/>
<path d="M146.547 326.188C146.071 325.984 145.614 325.983 145.177 326.185C144.74 326.387 144.361 326.779 144.04 327.361C143.822 327.757 143.694 328.122 143.656 328.456C143.615 328.788 143.651 329.08 143.765 329.333C143.881 329.582 144.062 329.774 144.308 329.91C144.509 330.03 144.712 330.086 144.917 330.077C145.123 330.064 145.329 330.004 145.533 329.898C145.734 329.79 145.936 329.648 146.139 329.473C146.339 329.296 146.536 329.098 146.729 328.878L147.543 327.984C147.93 327.545 148.333 327.168 148.749 326.853C149.166 326.538 149.595 326.302 150.036 326.146C150.477 325.99 150.929 325.93 151.391 325.965C151.855 325.997 152.327 326.142 152.807 326.402C153.507 326.792 154.016 327.306 154.336 327.944C154.654 328.577 154.773 329.303 154.69 330.124C154.607 330.939 154.308 331.813 153.794 332.746C153.284 333.672 152.698 334.4 152.036 334.931C151.377 335.458 150.663 335.76 149.895 335.839C149.125 335.911 148.323 335.729 147.488 335.294L148.779 332.948C149.178 333.133 149.56 333.2 149.924 333.148C150.287 333.09 150.624 332.932 150.936 332.676C151.246 332.413 151.516 332.073 151.746 331.655C151.972 331.244 152.109 330.855 152.156 330.487C152.205 330.115 152.169 329.787 152.049 329.501C151.928 329.216 151.73 328.998 151.454 328.846C151.196 328.704 150.938 328.661 150.678 328.717C150.42 328.77 150.15 328.908 149.866 329.132C149.585 329.351 149.279 329.642 148.948 330.005L147.947 331.081C147.179 331.918 146.391 332.479 145.583 332.764C144.774 333.048 143.947 332.955 143.102 332.485C142.405 332.107 141.901 331.588 141.587 330.929C141.276 330.266 141.156 329.526 141.226 328.709C141.297 327.891 141.562 327.065 142.023 326.228C142.491 325.377 143.046 324.715 143.686 324.24C144.329 323.762 145.007 323.489 145.721 323.42C146.436 323.351 147.137 323.499 147.827 323.864L146.547 326.188Z" fill="#F4E0FD"/>
<path d="M153.832 312.703L155.587 313.754L152.549 318.826L150.794 317.776L153.832 312.703ZM149.466 315.415L150.864 313.079L158.718 317.782C158.933 317.911 159.121 317.979 159.281 317.985C159.438 317.989 159.575 317.947 159.692 317.859C159.812 317.767 159.919 317.642 160.013 317.485C160.079 317.375 160.135 317.26 160.183 317.139C160.226 317.016 160.26 316.922 160.284 316.857L162.243 317.531C162.209 317.67 162.153 317.86 162.073 318.1C161.998 318.343 161.874 318.619 161.704 318.929C161.388 319.505 161.018 319.954 160.592 320.275C160.168 320.593 159.706 320.76 159.204 320.777C158.702 320.795 158.176 320.636 157.626 320.302L149.466 315.415Z" fill="#F4E0FD"/>
<path d="M165.783 312.055L157.522 306.75L158.948 304.529L160.39 305.455L160.445 305.369C160.029 304.889 159.804 304.387 159.77 303.864C159.733 303.339 159.862 302.845 160.159 302.382C160.233 302.268 160.32 302.148 160.419 302.025C160.519 301.901 160.613 301.798 160.703 301.713L162.736 303.019C162.635 303.106 162.51 303.236 162.363 303.41C162.216 303.584 162.092 303.75 161.991 303.908C161.774 304.245 161.654 304.593 161.631 304.953C161.606 305.307 161.674 305.644 161.833 305.963C161.994 306.28 162.243 306.546 162.581 306.763L167.255 309.764L165.783 312.055Z" fill="#F4E0FD"/>
<path d="M174.591 299.057C174.233 299.571 173.826 299.968 173.368 300.246C172.906 300.522 172.417 300.655 171.901 300.644C171.383 300.627 170.859 300.434 170.327 300.064C169.879 299.753 169.56 299.41 169.369 299.034C169.179 298.658 169.09 298.263 169.101 297.851C169.112 297.439 169.196 297.02 169.352 296.593C169.51 296.164 169.709 295.736 169.947 295.31C170.224 294.807 170.441 294.398 170.598 294.082C170.752 293.763 170.83 293.508 170.833 293.318C170.835 293.128 170.751 292.973 170.579 292.854L170.548 292.832C170.215 292.601 169.885 292.528 169.557 292.611C169.232 292.691 168.937 292.922 168.672 293.304C168.392 293.706 168.259 294.088 168.272 294.45C168.282 294.81 168.393 295.121 168.605 295.382L167.001 297.334C166.584 296.889 166.304 296.388 166.161 295.832C166.014 295.274 166.013 294.685 166.159 294.064C166.303 293.438 166.599 292.803 167.046 292.159C167.357 291.711 167.708 291.319 168.097 290.982C168.489 290.642 168.906 290.389 169.347 290.224C169.791 290.055 170.251 289.998 170.727 290.054C171.198 290.106 171.674 290.299 172.154 290.632L177.593 294.41L176.119 296.531L175.001 295.754L174.957 295.817C175.12 296.122 175.221 296.449 175.263 296.8C175.302 297.148 175.269 297.512 175.166 297.892C175.06 298.27 174.868 298.658 174.591 299.057ZM173.492 297.344C173.721 297.015 173.858 296.68 173.903 296.338C173.945 295.993 173.904 295.672 173.78 295.373C173.655 295.074 173.451 294.826 173.168 294.629L172.312 294.034C172.309 294.136 172.284 294.261 172.238 294.411C172.19 294.554 172.13 294.712 172.057 294.884C171.98 295.054 171.902 295.223 171.822 295.39C171.738 295.555 171.663 295.705 171.595 295.84C171.451 296.129 171.353 296.401 171.301 296.655C171.249 296.91 171.257 297.141 171.325 297.349C171.39 297.555 171.527 297.731 171.737 297.876C172.042 298.088 172.351 298.139 172.665 298.031C172.978 297.916 173.254 297.687 173.492 297.344Z" fill="#F4E0FD"/>
<path d="M183.164 286.729L173.744 282.883L175.418 280.696L181.581 283.497L181.636 283.426L177.361 278.158L179.004 276.011L185.191 278.718L185.242 278.652L180.943 273.478L182.614 271.295L188.79 279.379L187.038 281.669L181.109 279.256L181.035 279.352L184.912 284.445L183.164 286.729Z" fill="#F4E0FD"/>
<path d="M194.879 271.782L184.873 263.341L186.629 261.26L190.391 264.433L190.444 264.37C190.319 264.108 190.225 263.803 190.162 263.455C190.099 263.1 190.116 262.724 190.212 262.326C190.308 261.921 190.533 261.509 190.887 261.089C191.349 260.542 191.918 260.158 192.595 259.937C193.268 259.714 194.009 259.705 194.815 259.912C195.619 260.116 196.451 260.581 197.311 261.306C198.148 262.012 198.74 262.744 199.089 263.501C199.437 264.251 199.564 264.983 199.47 265.696C199.376 266.402 199.088 267.04 198.607 267.61C198.267 268.014 197.91 268.302 197.537 268.472C197.167 268.64 196.806 268.728 196.453 268.737C196.097 268.743 195.774 268.705 195.486 268.623L195.408 268.716L196.61 269.73L194.879 271.782ZM192.845 266.579C193.291 266.956 193.733 267.222 194.169 267.379C194.606 267.535 195.016 267.575 195.4 267.497C195.78 267.416 196.112 267.208 196.395 266.873C196.68 266.534 196.829 266.169 196.842 265.778C196.85 265.384 196.74 264.987 196.509 264.586C196.278 264.179 195.944 263.791 195.508 263.423C195.075 263.058 194.643 262.797 194.212 262.64C193.781 262.483 193.374 262.443 192.991 262.521C192.607 262.599 192.271 262.809 191.983 263.151C191.697 263.489 191.545 263.852 191.526 264.237C191.51 264.62 191.614 265.011 191.839 265.413C192.064 265.814 192.399 266.203 192.845 266.579Z" fill="#F4E0FD"/>
<path d="M209.022 255.842C208.34 256.587 207.602 257.089 206.808 257.35C206.013 257.605 205.206 257.622 204.385 257.401C203.561 257.177 202.767 256.715 202.004 256.016C201.26 255.333 200.739 254.59 200.441 253.785C200.144 252.981 200.079 252.172 200.246 251.36C200.415 250.544 200.826 249.781 201.477 249.071C201.914 248.594 202.399 248.22 202.93 247.95C203.461 247.673 204.02 247.521 204.607 247.492C205.196 247.461 205.801 247.57 206.422 247.821C207.038 248.069 207.655 248.475 208.27 249.039L208.822 249.545L203.219 255.655L201.975 254.515L205.846 250.293C205.557 250.029 205.243 249.857 204.905 249.778C204.567 249.699 204.233 249.713 203.902 249.821C203.572 249.923 203.273 250.12 203.005 250.412C202.726 250.717 202.549 251.052 202.474 251.417C202.399 251.776 202.419 252.13 202.534 252.477C202.645 252.823 202.842 253.128 203.125 253.393L204.308 254.477C204.666 254.805 205.036 255.023 205.418 255.13C205.802 255.234 206.177 255.228 206.543 255.113C206.909 254.998 207.246 254.772 207.554 254.436C207.759 254.213 207.915 253.98 208.022 253.737C208.129 253.494 208.18 253.249 208.175 253.002C208.171 252.755 208.109 252.513 207.99 252.277L209.815 250.533C210.174 251.036 210.387 251.586 210.452 252.184C210.517 252.775 210.431 253.385 210.196 254.014C209.961 254.636 209.57 255.246 209.022 255.842Z" fill="#F4E0FD"/>
<path d="M216.72 247.393L209.729 240.5L211.582 238.62L212.802 239.823L212.874 239.75C212.565 239.195 212.449 238.658 212.523 238.139C212.595 237.617 212.824 237.161 213.21 236.769C213.305 236.672 213.415 236.573 213.537 236.473C213.66 236.373 213.774 236.29 213.879 236.226L215.6 237.923C215.483 237.987 215.334 238.089 215.155 238.229C214.975 238.369 214.819 238.505 214.687 238.639C214.406 238.924 214.217 239.24 214.12 239.588C214.023 239.929 214.019 240.272 214.109 240.618C214.202 240.961 214.391 241.273 214.676 241.554L218.632 245.454L216.72 247.393Z" fill="#F4E0FD"/>
<path d="M225.869 238.277L219.105 231.161L221.019 229.342L222.199 230.584L222.273 230.513C221.983 229.948 221.884 229.408 221.975 228.892C222.064 228.373 222.307 227.924 222.706 227.545C222.805 227.451 222.917 227.356 223.043 227.26C223.169 227.163 223.286 227.085 223.393 227.024L225.057 228.776C224.938 228.836 224.786 228.933 224.602 229.067C224.418 229.201 224.258 229.333 224.122 229.462C223.832 229.738 223.632 230.048 223.524 230.392C223.416 230.729 223.401 231.073 223.48 231.421C223.561 231.767 223.74 232.085 224.016 232.375L227.843 236.402L225.869 238.277Z" fill="#F4E0FD"/>
<path d="M238.991 231.105C238.732 231.334 238.471 231.528 238.208 231.687C237.951 231.846 237.722 231.96 237.521 232.029L236.635 230.1C236.939 229.961 237.19 229.811 237.387 229.648C237.588 229.482 237.716 229.289 237.772 229.069C237.831 228.847 237.804 228.581 237.69 228.272L237.534 227.855L228.207 222.619L230.353 220.723L236.651 224.78L236.728 224.712L233.491 217.95L235.651 216.041L239.995 226.72C240.208 227.238 240.326 227.748 240.349 228.25C240.379 228.753 240.285 229.243 240.068 229.718C239.855 230.197 239.496 230.66 238.991 231.105Z" fill="#F4E0FD"/>
</svg>
